<svg version="1.1" id="Layer_1" xmlns="http://www.w3.org/2000/svg" xmlns:xlink="http://www.w3.org/1999/xlink" x="0px" y="0px"
	 width="100%" viewBox="0 0 790 288" enable-background="new 0 0 790 288" xml:space="preserve">
<path fill="#FFFEFE" opacity="1.000000" stroke="none" 
	d="
M559.000000,289.000000 
	C372.709747,289.000000 186.919464,289.000000 1.064598,289.000000 
	C1.064598,193.065353 1.064598,97.130646 1.064598,1.097969 
	C264.333313,1.097969 527.666626,1.097969 790.972900,1.097969 
	C790.972900,97.080582 790.972900,193.040298 790.972900,289.000000 
	C713.797241,289.000000 636.648621,289.000000 559.000000,289.000000 
M161.660080,15.587008 
	C161.660080,15.587008 161.726654,15.626555 161.357635,15.482615 
	C161.357635,15.482615 161.151794,15.821022 161.014572,16.643353 
	C161.009659,69.446182 160.988083,122.249016 161.006744,175.051834 
	C161.016388,202.366180 161.097397,229.680481 160.994980,257.742554 
	C161.043106,258.500641 161.091248,259.258728 161.018768,260.497833 
	C161.018768,260.497833 161.153458,260.975159 161.013016,261.880127 
	C162.353027,262.287048 163.730331,263.140625 165.027328,263.032349 
	C179.315872,261.839111 193.578476,260.318085 207.874802,259.239746 
	C225.244644,257.929626 242.640060,256.958557 260.920959,255.969498 
	C261.737854,255.079849 263.261780,254.192825 263.265076,253.300171 
	C263.311127,240.846069 263.149261,228.391220 262.628937,215.178772 
	C255.083267,215.520660 247.537582,215.862549 239.094498,216.059052 
	C227.399658,216.728638 215.704819,217.398239 203.205139,217.944778 
	C202.121826,218.004379 201.038528,218.063980 199.540878,217.246170 
	C199.540878,195.851791 199.540878,174.457428 199.540878,152.613083 
	C215.916443,152.613083 231.833450,152.613083 247.859543,152.613083 
	C247.859543,138.934418 247.859543,125.711380 247.859543,112.096725 
	C231.637360,112.096725 215.721130,112.096725 199.434982,112.096725 
	C199.434982,96.925179 199.392197,82.144669 199.456360,67.364616 
	C199.481522,61.566940 199.746292,55.770298 200.608612,50.033234 
	C201.074921,49.974037 201.541229,49.914841 202.934052,50.001492 
	C222.277267,49.974869 241.620499,49.948250 261.762451,49.914692 
	C261.872467,37.603024 261.982483,25.291353 262.229492,12.314072 
	C262.135223,11.881409 262.040955,11.448745 261.960602,10.428232 
	C261.486176,10.317414 261.011780,10.109831 260.537292,10.109588 
	C228.416794,10.093162 196.296280,10.084767 164.175858,10.132638 
	C163.180954,10.134120 162.186935,10.733647 161.020645,11.515972 
	C161.020645,11.515972 161.152145,11.990660 161.012039,12.541641 
	C161.100937,13.086764 161.189835,13.631887 161.115784,14.944698 
	C161.297379,15.132991 161.478989,15.321284 161.660080,15.587008 
M332.134369,11.902202 
	C332.134369,11.902202 332.225037,11.842488 332.139923,11.293476 
	C332.012939,11.158675 331.885986,11.023873 331.215271,10.304482 
	C317.280151,10.304482 303.345032,10.304482 288.964722,10.304482 
	C289.501953,11.949464 289.861603,13.184317 290.304810,14.388421 
	C304.300232,52.411938 318.329254,90.423141 332.233185,128.480072 
	C332.953491,130.451660 333.333954,133.066528 332.661621,134.949478 
	C323.450317,160.746674 314.042389,186.473816 304.646759,212.204987 
	C299.474884,226.368851 294.235504,240.508057 289.225769,254.117203 
	C301.918060,254.117203 314.395020,254.225937 326.863586,253.951569 
	C328.131744,253.923660 329.949799,251.809235 330.497620,250.295685 
	C336.204071,234.528809 341.684479,218.680298 347.267242,202.868423 
	C349.724548,195.908600 352.272583,188.980820 355.023926,181.361374 
	C357.489716,188.859207 359.613861,195.557175 361.893219,202.201920 
	C367.484253,218.500916 373.146790,234.775375 378.833374,251.604843 
	C378.959015,251.737289 379.084686,251.869736 379.744110,252.602936 
	C393.336304,252.602936 406.928497,252.602936 420.860626,252.602936 
	C420.356689,251.157837 419.936157,249.928085 419.499756,248.703979 
	C406.177094,211.332932 392.799805,173.981110 379.647491,136.550217 
	C378.764008,134.035736 378.802795,130.639282 379.721741,128.133026 
	C393.666656,90.100952 407.833160,52.150124 421.930481,14.173857 
	C422.364380,13.005023 422.611420,11.766827 423.039429,10.222402 
	C412.719055,10.222402 402.899750,10.161141 393.081879,10.254648 
	C389.503021,10.288733 385.927673,10.691177 382.017700,11.471149 
	C382.004547,11.683803 381.991425,11.896455 381.442291,12.570071 
	C373.187775,36.507336 364.933258,60.444599 356.580017,84.668205 
	C348.577393,60.540482 340.695862,36.777920 332.871246,12.474338 
	C332.619507,12.247954 332.367737,12.021570 332.134369,11.902202 
M126.262787,10.317420 
	C117.207886,10.285295 108.152527,10.190573 99.098366,10.257775 
	C96.244377,10.278959 93.393616,10.734049 90.227921,11.626657 
	C90.314819,12.086893 90.401718,12.547129 90.271172,13.919548 
	C90.284294,51.706619 90.282684,89.493706 90.324379,127.280746 
	C90.331718,133.929657 90.520363,140.578369 90.342018,148.082077 
	C90.212181,152.074142 90.082336,156.066223 89.996010,160.006149 
	C89.996010,160.006149 90.044579,159.958679 89.312408,159.826569 
	C83.915512,143.253922 78.520485,126.680649 73.121323,110.108734 
	C62.732803,78.222694 52.366501,46.329319 41.879597,14.475656 
	C41.354694,12.881296 39.807571,10.439173 38.683079,10.409445 
	C27.255602,10.107347 15.817033,10.224909 4.301340,10.224909 
	C4.301340,102.246513 4.301340,193.634613 4.301340,285.405670 
	C16.962536,283.049133 29.289282,280.754852 42.170368,278.357391 
	C42.170368,228.847321 42.170368,179.624817 42.170368,130.402298 
	C44.259441,134.265656 45.628712,138.156097 46.837765,142.095718 
	C59.592392,183.655991 72.373978,225.208221 84.971352,266.816193 
	C86.151390,270.713776 88.007332,271.614716 91.750168,271.062073 
	C100.466286,269.775085 109.229698,268.808350 118.765038,267.774902 
	C127.294853,266.098511 127.416565,266.098511 127.416618,257.155273 
	C127.416985,194.403885 127.388000,131.652466 127.311508,68.901115 
	C127.288383,49.932156 127.085518,30.963409 127.080704,11.424147 
	C126.975449,11.261144 126.870201,11.098140 126.262787,10.317420 
M461.496735,253.634277 
	C461.988922,253.610718 462.481110,253.587158 463.882477,253.820282 
	C472.480927,253.820282 481.079376,253.820282 490.002319,253.820282 
	C490.002319,220.445282 490.002319,186.853409 490.002319,152.762009 
	C503.432404,152.762009 516.547485,152.789505 529.662170,152.728760 
	C531.387756,152.720779 533.111145,152.261703 535.184204,151.127197 
	C535.184753,139.391434 535.220459,127.655403 535.134399,115.920280 
	C535.125244,114.677094 534.401428,113.439156 533.511597,112.060074 
	C533.344971,112.103912 533.178345,112.147758 532.261658,112.037613 
	C531.501404,112.095779 530.741150,112.153946 529.337463,112.041153 
	C528.900452,112.089104 528.463440,112.137054 527.094666,112.048790 
	C515.387268,112.100082 503.679871,112.151375 491.126831,111.977348 
	C490.730103,110.699928 489.993591,109.424049 489.987793,108.144859 
	C489.904938,89.924995 489.913818,71.704674 489.931091,53.484497 
	C489.932098,52.404663 490.192169,51.325069 490.377014,49.894611 
	C495.782837,49.894611 500.898712,49.894611 506.499268,50.010269 
	C506.499268,50.010269 506.983765,49.893822 507.656555,50.059566 
	C508.111450,50.002876 508.566345,49.946190 509.948364,50.020031 
	C521.954407,49.975700 533.960510,49.931366 546.836182,50.054665 
	C547.539490,48.744198 548.826233,47.445328 548.852539,46.121395 
	C549.038025,36.791969 548.964844,27.457396 548.973022,18.124466 
	C548.975281,15.548820 548.973389,12.973171 548.973389,10.427803 
	C533.143738,10.427803 518.164551,10.427803 502.446716,10.272580 
	C500.578735,10.338973 498.710754,10.405366 495.949921,10.237460 
	C481.090790,10.237460 466.231659,10.237460 451.014709,10.237460 
	C451.156250,12.870503 451.261322,14.825343 451.184570,17.619329 
	C451.183838,60.592155 451.154510,103.565018 451.196472,146.537796 
	C451.213226,163.685669 451.387482,180.833389 451.259766,198.893738 
	C451.271667,210.789536 451.221283,222.685852 451.321442,234.580917 
	C451.372467,240.638168 451.694031,246.693161 452.618927,253.235992 
	C454.048187,253.204742 455.477478,253.173492 457.494537,253.447815 
	C458.593262,253.428894 459.691986,253.409958 461.496735,253.634277 
M736.173584,17.179806 
	C735.793579,18.459612 735.413513,19.739416 734.649353,21.637863 
	C727.035706,43.093197 719.421997,64.548531 711.808350,86.003868 
	C709.112366,82.144455 707.454346,78.395393 706.091064,74.542076 
	C699.068054,54.691666 692.120605,34.814514 685.149719,14.242902 
	C684.827209,13.652648 684.504700,13.062394 684.279663,12.241489 
	C684.279663,12.241489 684.119934,12.048653 684.064697,11.186428 
	C683.867554,10.929851 683.672485,10.450432 683.472839,10.448517 
	C670.223816,10.321507 656.974243,10.215574 643.725403,10.265181 
	C643.457947,10.266182 643.197449,12.119945 642.933350,13.583657 
	C642.933350,13.583657 643.152771,14.004178 643.186829,14.673108 
	C643.807983,16.079391 644.429138,17.485678 645.139893,19.634027 
	C659.102478,58.025810 673.088196,96.409241 686.950256,134.837280 
	C687.556396,136.517639 687.571045,138.808014 686.950928,140.475662 
	C673.580627,176.429962 660.080627,212.336044 646.604980,248.251175 
	C644.432922,254.039978 642.257324,259.827454 639.977478,265.897461 
	C652.697510,267.299225 664.763794,268.550507 676.804138,270.015228 
	C679.548218,270.349030 680.959839,269.854279 681.936218,267.012939 
	C685.929443,255.392471 690.150024,243.849304 694.365112,232.306213 
	C698.980347,219.667267 703.681641,207.059784 708.440063,194.182571 
	C709.092041,194.869400 709.435913,195.069794 709.528931,195.352676 
	C717.771667,220.424988 726.140564,245.457581 734.106750,270.617706 
	C735.862366,276.162506 738.408813,279.038483 744.476929,279.778625 
	C756.612793,281.259003 768.646057,283.580017 781.251587,285.640503 
	C780.811157,284.147308 780.613220,283.377777 780.358582,282.627472 
	C764.830444,236.871826 749.335938,191.104660 733.698853,145.386292 
	C732.329956,141.384094 732.293518,137.898895 733.867065,133.932480 
	C740.234436,117.881897 746.360901,101.735054 752.498169,85.594032 
	C761.409058,62.158897 770.252319,38.698074 779.681763,14.734800 
	C780.103821,13.380374 780.525940,12.025948 781.119873,10.120002 
	C768.749939,10.120002 756.868896,10.494232 745.029480,9.955601 
	C739.455017,9.701998 737.087891,11.611380 736.878723,16.942299 
	C736.878723,16.942299 736.698120,16.753304 736.173584,17.179806 
M575.032166,206.942902 
	C575.079956,222.977814 575.127747,239.012711 575.022461,255.908508 
	C575.100159,257.490570 575.177917,259.072601 575.263977,260.824982 
	C586.804260,261.541321 597.890076,262.229431 609.699341,263.195801 
	C611.002869,263.285767 612.306335,263.375732 613.701050,263.471985 
	C613.701050,179.041702 613.701050,94.829926 613.701050,10.398416 
	C603.268005,10.398416 593.142456,10.398416 582.208313,10.213559 
	C580.473877,10.205499 578.727783,10.087760 577.013855,10.271352 
	C576.616638,10.313898 576.329651,11.384991 575.216492,12.389080 
	C575.144226,14.046990 575.009216,15.704889 575.008911,17.362814 
	C574.999084,70.935379 574.993774,124.507950 575.011536,178.080521 
	C575.014587,187.393417 575.123474,196.706299 575.032166,206.942902 
z"/>
<path fill="#EA1B1A" opacity="1.000000" stroke="none" 
	d="
M117.973953,267.711884 
	C109.229698,268.808350 100.466286,269.775085 91.750168,271.062073 
	C88.007332,271.614716 86.151390,270.713776 84.971352,266.816193 
	C72.373978,225.208221 59.592392,183.655991 46.837765,142.095718 
	C45.628712,138.156097 44.259441,134.265656 42.170368,130.402298 
	C42.170368,179.624817 42.170368,228.847321 42.170368,278.357391 
	C29.289282,280.754852 16.962536,283.049133 4.301340,285.405670 
	C4.301340,193.634613 4.301340,102.246513 4.301340,10.224909 
	C15.817033,10.224909 27.255602,10.107347 38.683079,10.409445 
	C39.807571,10.439173 41.354694,12.881296 41.879597,14.475656 
	C52.366501,46.329319 62.732803,78.222694 73.121323,110.108734 
	C78.520485,126.680649 83.915512,143.253922 89.635674,160.108505 
	C90.170586,160.345535 90.382240,160.300613 90.593895,160.255707 
	C90.380096,160.189911 90.166290,160.124100 89.952492,160.058289 
	C90.082336,156.066223 90.212181,152.074142 90.640091,147.953430 
	C91.059845,149.195251 91.181541,150.565735 91.303238,151.936218 
	C91.860550,151.574234 91.981613,151.285629 91.981689,150.996979 
	C91.993118,106.355850 92.005608,61.714706 91.952972,17.073639 
	C91.951340,15.692335 91.270462,14.311832 91.227737,12.655604 
	C103.036316,12.264928 114.523399,12.149603 126.009506,12.500786 
	C126.005844,94.723625 125.962715,176.480026 126.099098,258.236145 
	C126.107445,263.237091 125.199112,266.270691 119.570312,266.139648 
	C119.050674,266.127533 118.506653,267.162903 117.973953,267.711884 
M29.444965,11.017879 
	C21.696465,11.017879 13.947965,11.017879 6.199464,11.017879 
	C6.206331,11.236415 6.213197,11.454950 6.220064,11.673487 
	C17.072716,11.673487 27.925367,11.673487 38.778019,11.673487 
	C38.777641,11.455305 38.777264,11.237123 38.776890,11.018941 
	C35.990944,11.018941 33.205002,11.018941 29.444965,11.017879 
z"/>
<path fill="#EA1A19" opacity="1.000000" stroke="none" 
	d="
M685.146851,14.946688 
	C692.120605,34.814514 699.068054,54.691666 706.091064,74.542076 
	C707.454346,78.395393 709.112366,82.144455 711.808350,86.003868 
	C719.421997,64.548531 727.035706,43.093197 735.142822,21.139679 
	C735.990173,19.345436 736.344177,18.049377 736.698120,16.753311 
	C736.698120,16.753304 736.878723,16.942299 737.114929,16.726536 
	C738.984741,14.991595 740.573975,12.215912 742.259094,12.156441 
	C753.488953,11.760108 764.741211,11.854944 775.980164,12.083742 
	C777.049255,12.105507 778.077332,14.145277 779.124451,15.248192 
	C770.252319,38.698074 761.409058,62.158897 752.498169,85.594032 
	C746.360901,101.735054 740.234436,117.881897 733.867065,133.932480 
	C732.293518,137.898895 732.329956,141.384094 733.698853,145.386292 
	C749.335938,191.104660 764.830444,236.871826 780.358582,282.627472 
	C780.613220,283.377777 780.811157,284.147308 781.251587,285.640503 
	C768.646057,283.580017 756.612793,281.259003 744.476929,279.778625 
	C738.408813,279.038483 735.862366,276.162506 734.106750,270.617706 
	C726.140564,245.457581 717.771667,220.424988 709.528931,195.352676 
	C709.435913,195.069794 709.092041,194.869400 708.440063,194.182571 
	C703.681641,207.059784 698.980347,219.667267 694.365112,232.306213 
	C690.150024,243.849304 685.929443,255.392471 681.936218,267.012939 
	C680.959839,269.854279 679.548218,270.349030 676.804138,270.015228 
	C664.763794,268.550507 652.697510,267.299225 639.977478,265.897461 
	C642.257324,259.827454 644.432922,254.039978 646.604980,248.251175 
	C660.080627,212.336044 673.580627,176.429962 686.950928,140.475662 
	C687.571045,138.808014 687.556396,136.517639 686.950256,134.837280 
	C673.088196,96.409241 659.102478,58.025810 645.105957,18.885115 
	C644.432251,16.758865 643.792480,15.381528 643.152771,14.004185 
	C643.152771,14.004178 642.933350,13.583657 643.210083,13.017597 
	C657.031189,12.317243 670.575562,12.182948 684.119934,12.048653 
	C684.119934,12.048653 684.279663,12.241489 684.208496,12.716885 
	C684.473816,13.777079 684.810303,14.361877 685.146851,14.946688 
z"/>
<path fill="#EA1B1A" opacity="1.000000" stroke="none" 
	d="
M332.814331,13.015360 
	C340.695862,36.777920 348.577393,60.540482 356.580017,84.668205 
	C364.933258,60.444599 373.187775,36.507336 381.783936,12.617834 
	C386.069458,12.442675 390.011749,12.069911 393.957581,12.027213 
	C402.885590,11.930604 411.815338,11.996829 420.744385,11.996829 
	C420.739807,11.639742 420.735229,11.282654 420.730652,10.925567 
	C407.937347,10.925567 395.144012,10.925567 382.350708,10.925566 
	C385.927673,10.691177 389.503021,10.288733 393.081879,10.254648 
	C402.899750,10.161141 412.719055,10.222402 423.039429,10.222402 
	C422.611420,11.766827 422.364380,13.005023 421.930481,14.173857 
	C407.833160,52.150124 393.666656,90.100952 379.721741,128.133026 
	C378.802795,130.639282 378.764008,134.035736 379.647491,136.550217 
	C392.799805,173.981110 406.177094,211.332932 419.499756,248.703979 
	C419.936157,249.928085 420.356689,251.157837 420.860626,252.602936 
	C406.928497,252.602936 393.336304,252.602936 379.930573,252.274994 
	C392.046387,251.947067 403.975708,251.947067 415.905060,251.947067 
	C415.905701,251.651291 415.906342,251.355499 415.906982,251.059723 
	C403.531494,251.059723 391.156036,251.059723 378.780548,251.059723 
	C373.146790,234.775375 367.484253,218.500916 361.893219,202.201920 
	C359.613861,195.557175 357.489716,188.859207 355.023926,181.361374 
	C352.272583,188.980820 349.724548,195.908600 347.267242,202.868423 
	C341.684479,218.680298 336.204071,234.528809 330.497620,250.295685 
	C329.949799,251.809235 328.131744,253.923660 326.863586,253.951569 
	C314.395020,254.225937 301.918060,254.117203 289.225769,254.117203 
	C294.235504,240.508057 299.474884,226.368851 304.646759,212.204987 
	C314.042389,186.473816 323.450317,160.746674 332.661621,134.949478 
	C333.333954,133.066528 332.953491,130.451660 332.233185,128.480072 
	C318.329254,90.423141 304.300232,52.411938 290.304810,14.388421 
	C289.861603,13.184317 289.501953,11.949464 288.964722,10.304482 
	C303.345032,10.304482 317.280151,10.304482 331.038788,10.640744 
	C320.589142,10.977007 310.315948,10.977007 300.042786,10.977007 
	C300.042603,11.265501 300.042389,11.553994 300.042206,11.842488 
	C310.769806,11.842488 321.497437,11.842488 332.225037,11.842488 
	C332.225037,11.842488 332.134369,11.902202 332.165466,12.090647 
	C332.310394,12.601802 332.516296,12.847225 332.814331,13.015360 
z"/>
<path fill="#EB1A19" opacity="1.000000" stroke="none" 
	d="
M199.955215,218.123596 
	C201.038528,218.063980 202.121826,218.004379 203.913757,218.286392 
	C215.744110,218.405518 226.866730,218.213318 237.985428,217.887131 
	C238.670120,217.867035 239.323807,216.789810 239.991913,216.204437 
	C247.537582,215.862549 255.083267,215.520660 262.527588,215.852783 
	C262.283997,227.489716 262.241913,238.455627 261.913940,249.412979 
	C261.849335,251.572495 260.682770,253.699036 260.024414,255.840790 
	C242.640060,256.958557 225.244644,257.929626 207.874802,259.239746 
	C193.578476,260.318085 179.315872,261.839111 165.027328,263.032349 
	C163.730331,263.140625 162.353027,262.287048 161.230103,261.337402 
	C161.344574,260.535400 161.241974,260.276093 161.139374,260.016815 
	C161.091248,259.258728 161.043106,258.500641 161.455719,257.266083 
	C162.276764,255.430023 162.951553,254.070618 162.952438,252.710800 
	C163.002335,175.295578 163.006897,97.880318 162.918655,20.465176 
	C162.916885,18.916456 161.766373,17.369045 161.151794,15.821024 
	C161.151794,15.821022 161.357635,15.482615 161.667023,15.288096 
	C162.012756,14.954943 162.049088,14.816307 162.085419,14.677673 
	C161.943802,14.954976 161.802200,15.232277 161.660583,15.509577 
	C161.478989,15.321284 161.297379,15.132991 161.428925,14.243047 
	C161.832932,13.033596 161.923828,12.525798 162.482361,12.008882 
	C175.538284,11.997752 188.126755,12.030644 200.714554,11.953032 
	C202.440979,11.942389 204.164032,11.382058 206.203705,11.157909 
	C207.736938,11.219017 208.955124,11.198440 210.465302,11.438955 
	C225.676636,11.797948 240.596466,11.857873 255.514755,12.041673 
	C257.385315,12.064719 259.247864,12.741372 261.109161,13.576452 
	C261.086639,25.672165 261.069031,37.306606 260.657562,48.796883 
	C259.633728,48.453922 259.004181,48.083073 258.373688,48.081383 
	C240.579575,48.033642 222.785217,47.993301 204.991592,48.085587 
	C203.993881,48.090759 203.002090,49.239288 202.007538,49.855652 
	C201.541229,49.914841 201.074921,49.974037 200.009018,50.013786 
	C199.409424,49.994335 198.916962,50.022728 198.640625,49.916622 
	C198.244598,69.540947 198.124924,89.271385 198.006149,109.405472 
	C197.911926,114.084412 201.010223,113.969292 203.879349,113.977638 
	C216.540009,114.014473 229.202362,114.103065 241.860657,113.926407 
	C245.551498,113.874901 247.250061,114.584480 247.099472,118.820557 
	C246.774124,127.971436 246.831467,137.146225 247.075623,146.302078 
	C247.176208,150.073990 245.951843,151.144348 242.239380,151.088150 
	C228.915298,150.886429 215.585403,151.091812 202.259857,150.947281 
	C199.015625,150.912125 197.881943,151.917191 197.946579,155.215790 
	C198.126053,164.374664 198.008774,173.539352 198.008392,182.701752 
	C198.007919,193.530029 197.956726,204.358948 198.091187,215.185547 
	C198.103439,216.172470 199.305603,217.144608 199.955215,218.123596 
z"/>
<path fill="#EB1C1B" opacity="1.000000" stroke="none" 
	d="
M534.835571,152.011551 
	C533.111145,152.261703 531.387756,152.720779 529.662170,152.728760 
	C516.547485,152.789505 503.432404,152.762009 490.002319,152.762009 
	C490.002319,186.853409 490.002319,220.445282 490.002319,253.820282 
	C481.079376,253.820282 472.480927,253.820282 463.289673,253.342758 
	C459.562286,252.364929 456.427734,251.864624 452.905457,251.302429 
	C452.905457,239.061646 452.905457,227.056473 452.905457,215.051300 
	C452.568085,215.053772 452.230682,215.056259 451.893311,215.058746 
	C451.893311,227.622223 451.893311,240.185699 451.893311,252.749176 
	C451.694031,246.693161 451.372467,240.638168 451.321442,234.580917 
	C451.221283,222.685852 451.271667,210.789536 451.723328,198.288177 
	C452.458862,196.440323 452.967957,195.198166 452.968781,193.955688 
	C453.006592,136.505112 453.013336,79.054512 452.930267,21.604048 
	C452.927948,19.995340 451.910492,18.388103 451.366394,16.780182 
	C451.261322,14.825343 451.156250,12.870503 451.014709,10.237460 
	C466.231659,10.237460 481.090790,10.237460 495.877869,10.514740 
	C481.543030,10.792020 467.280243,10.792020 453.017426,10.792020 
	C453.019501,11.099373 453.021576,11.406725 453.023651,11.714078 
	C484.306152,11.714078 515.588684,11.714078 546.871155,11.714078 
	C538.757385,11.018505 530.636902,11.093557 522.518555,10.994657 
	C516.072754,10.916133 509.629608,10.624703 503.185303,10.427803 
	C518.164551,10.427803 533.143738,10.427803 548.973389,10.427803 
	C548.973389,12.973171 548.975281,15.548820 548.973022,18.124466 
	C548.964844,27.457396 549.038025,36.791969 548.852539,46.121395 
	C548.826233,47.445328 547.539490,48.744198 546.098267,49.689186 
	C534.644470,49.210918 523.928772,49.063721 513.212646,49.027332 
	C511.816467,49.022591 510.418427,49.588116 509.021240,49.889500 
	C508.566345,49.946190 508.111450,50.002876 507.233612,49.817902 
	C506.545319,49.682358 506.279938,49.788483 506.014587,49.894608 
	C500.898712,49.894611 495.782837,49.894611 490.377014,49.894611 
	C490.192169,51.325069 489.932098,52.404663 489.931091,53.484497 
	C489.913818,71.704674 489.904938,89.924995 489.987793,108.144859 
	C489.993591,109.424049 490.730103,110.699928 491.443237,112.398468 
	C493.108124,113.212669 494.454193,113.937584 495.805420,113.947220 
	C508.533203,114.038025 521.261841,114.006752 533.992432,114.478691 
	C533.995605,124.751099 533.997620,134.555527 533.997192,144.359955 
	C533.996948,150.998230 533.995483,150.999481 527.227905,151.000031 
	C515.176331,151.001007 503.124725,151.000290 491.073151,151.000290 
	C491.074036,151.337372 491.074890,151.674469 491.075775,152.011551 
	C505.662384,152.011551 520.248962,152.011551 534.835571,152.011551 
z"/>
<path fill="#EB1918" opacity="1.000000" stroke="none" 
	d="
M575.991943,11.982804 
	C576.329651,11.384991 576.616638,10.313898 577.013855,10.271352 
	C578.727783,10.087760 580.473877,10.205499 582.750671,10.662930 
	C584.860291,11.408311 586.423950,11.935501 587.995361,11.959754 
	C594.326172,12.057462 600.679688,12.309937 606.985229,11.898825 
	C611.798523,11.585009 613.111816,13.111032 613.102661,17.949848 
	C612.952820,97.437225 612.971130,176.925003 613.078918,256.412506 
	C613.083557,259.817322 612.391052,262.031647 608.975830,262.917542 
	C597.890076,262.229431 586.804260,261.541321 575.263977,260.824982 
	C575.177917,259.072601 575.100159,257.490570 575.479736,255.357422 
	C576.288025,253.116211 576.933533,251.427811 576.943359,249.735733 
	C577.024292,235.829514 576.987000,221.922592 576.989746,207.546249 
	C576.995117,145.227997 577.011292,83.379372 576.954773,21.530815 
	C576.951904,18.347855 576.327148,15.165464 575.991943,11.982804 
z"/>
<path fill="#DD1C1C" opacity="1.000000" stroke="none" 
	d="
M118.369492,267.743408 
	C118.506653,267.162903 119.050674,266.127533 119.570312,266.139648 
	C125.199112,266.270691 126.107445,263.237091 126.099098,258.236145 
	C125.962715,176.480026 126.005844,94.723625 126.248016,12.489329 
	C126.487495,12.011366 126.964989,11.994565 126.964989,11.994565 
	C127.085518,30.963409 127.288383,49.932156 127.311508,68.901115 
	C127.388000,131.652466 127.416985,194.403885 127.416618,257.155273 
	C127.416565,266.098511 127.294853,266.098511 118.369492,267.743408 
z"/>
<path fill="#E51110" opacity="1.000000" stroke="none" 
	d="
M161.083176,16.232189 
	C161.766373,17.369045 162.916885,18.916456 162.918655,20.465176 
	C163.006897,97.880318 163.002335,175.295578 162.952438,252.710800 
	C162.951553,254.070618 162.276764,255.430023 161.531311,256.892212 
	C161.097397,229.680481 161.016388,202.366180 161.006744,175.051834 
	C160.988083,122.249016 161.009659,69.446182 161.083176,16.232189 
z"/>
<path fill="#DA1E1C" opacity="1.000000" stroke="none" 
	d="
M199.748047,217.684875 
	C199.305603,217.144608 198.103439,216.172470 198.091187,215.185547 
	C197.956726,204.358948 198.007919,193.530029 198.008392,182.701752 
	C198.008774,173.539352 198.126053,164.374664 197.946579,155.215790 
	C197.881943,151.917191 199.015625,150.912125 202.259857,150.947281 
	C215.585403,151.091812 228.915298,150.886429 242.239380,151.088150 
	C245.951843,151.144348 247.176208,150.073990 247.075623,146.302078 
	C246.831467,137.146225 246.774124,127.971436 247.099472,118.820557 
	C247.250061,114.584480 245.551498,113.874901 241.860657,113.926407 
	C229.202362,114.103065 216.540009,114.014473 203.879349,113.977638 
	C201.010223,113.969292 197.911926,114.084412 198.283905,109.099030 
	C198.670441,106.573265 198.872162,104.757751 198.875549,102.941879 
	C198.908340,85.302193 198.907913,67.662453 198.916962,50.022728 
	C198.916962,50.022728 199.409424,49.994335 199.655685,49.983761 
	C199.746292,55.770298 199.481522,61.566940 199.456360,67.364616 
	C199.392197,82.144669 199.434982,96.925179 199.434982,112.096725 
	C215.721130,112.096725 231.637360,112.096725 247.859543,112.096725 
	C247.859543,125.711380 247.859543,138.934418 247.859543,152.613083 
	C231.833450,152.613083 215.916443,152.613083 199.540878,152.613083 
	C199.540878,174.457428 199.540878,195.851791 199.748047,217.684875 
z"/>
<path fill="#E41111" opacity="1.000000" stroke="none" 
	d="
M575.604248,12.185944 
	C576.327148,15.165464 576.951904,18.347855 576.954773,21.530815 
	C577.011292,83.379372 576.995117,145.227997 576.758362,207.399963 
	C576.076355,207.155273 575.629944,206.587234 575.183472,206.019180 
	C575.123474,196.706299 575.014587,187.393417 575.011536,178.080521 
	C574.993774,124.507950 574.999084,70.935379 575.008911,17.362814 
	C575.009216,15.704889 575.144226,14.046990 575.604248,12.185944 
z"/>
<path fill="#E3100E" opacity="1.000000" stroke="none" 
	d="
M451.275482,17.199755 
	C451.910492,18.388103 452.927948,19.995340 452.930267,21.604048 
	C453.013336,79.054512 453.006592,136.505112 452.968781,193.955688 
	C452.967957,195.198166 452.458862,196.440323 451.838440,197.831909 
	C451.387482,180.833389 451.213226,163.685669 451.196472,146.537796 
	C451.154510,103.565018 451.183838,60.592155 451.275482,17.199755 
z"/>
<path fill="#CD110F" opacity="1.000000" stroke="none" 
	d="
M609.337585,263.056671 
	C612.391052,262.031647 613.083557,259.817322 613.078918,256.412506 
	C612.971130,176.925003 612.952820,97.437225 613.102661,17.949848 
	C613.111816,13.111032 611.798523,11.585009 606.985229,11.898825 
	C600.679688,12.309937 594.326172,12.057462 587.995361,11.959754 
	C586.423950,11.935501 584.860291,11.408311 583.154907,10.755359 
	C593.142456,10.398416 603.268005,10.398416 613.701050,10.398416 
	C613.701050,94.829926 613.701050,179.041702 613.701050,263.471985 
	C612.306335,263.375732 611.002869,263.285767 609.337585,263.056671 
z"/>
<path fill="#E10B09" opacity="1.000000" stroke="none" 
	d="
M90.906258,12.930955 
	C91.270462,14.311832 91.951340,15.692335 91.952972,17.073639 
	C92.005608,61.714706 91.993118,106.355850 91.981689,150.996979 
	C91.981613,151.285629 91.860550,151.574234 91.303238,151.936218 
	C91.181541,150.565735 91.059845,149.195251 90.781723,147.525970 
	C90.520363,140.578369 90.331718,133.929657 90.324379,127.280746 
	C90.282684,89.493706 90.284294,51.706619 90.485344,13.450038 
	C90.699516,12.980528 90.906258,12.930955 90.906258,12.930955 
z"/>
<path fill="#E20F0D" opacity="1.000000" stroke="none" 
	d="
M202.470795,49.928574 
	C203.002090,49.239288 203.993881,48.090759 204.991592,48.085587 
	C222.785217,47.993301 240.579575,48.033642 258.373688,48.081383 
	C259.004181,48.083073 259.633728,48.453922 260.654663,49.044117 
	C261.045654,49.435516 260.963715,49.921627 260.963715,49.921627 
	C241.620499,49.948250 222.277267,49.974869 202.470795,49.928574 
z"/>
<path fill="#C84042" opacity="1.000000" stroke="none" 
	d="
M210.173309,11.177862 
	C208.955124,11.198440 207.736938,11.219017 205.747711,11.141166 
	C190.381943,11.046611 175.787216,11.050487 161.192505,11.054363 
	C162.186935,10.733647 163.180954,10.134120 164.175858,10.132638 
	C196.296280,10.084767 228.416794,10.093162 260.537292,10.109588 
	C261.011780,10.109831 261.486176,10.317414 261.488464,10.746922 
	C244.068680,11.103027 227.120987,11.140445 210.173309,11.177862 
z"/>
<path fill="#CC0D0C" opacity="1.000000" stroke="none" 
	d="
M502.816010,10.350191 
	C509.629608,10.624703 516.072754,10.916133 522.518555,10.994657 
	C530.636902,11.093557 538.757385,11.018505 546.871155,11.714078 
	C515.588684,11.714078 484.306152,11.714078 453.023651,11.714078 
	C453.021576,11.406725 453.019501,11.099373 453.017426,10.792020 
	C467.280243,10.792020 481.543030,10.792020 496.324310,10.631889 
	C498.710754,10.405366 500.578735,10.338973 502.816010,10.350191 
z"/>
<path fill="#C73638" opacity="1.000000" stroke="none" 
	d="
M779.403076,14.991492 
	C778.077332,14.145277 777.049255,12.105507 775.980164,12.083742 
	C764.741211,11.854944 753.488953,11.760108 742.259094,12.156441 
	C740.573975,12.215912 738.984741,14.991595 737.007324,16.652342 
	C737.087891,11.611380 739.455017,9.701998 745.029480,9.955601 
	C756.868896,10.494232 768.749939,10.120002 781.119873,10.120002 
	C780.525940,12.025948 780.103821,13.380374 779.403076,14.991492 
z"/>
<path fill="#CB1D1B" opacity="1.000000" stroke="none" 
	d="
M575.107788,206.481049 
	C575.629944,206.587234 576.076355,207.155273 576.754211,207.869598 
	C576.987000,221.922592 577.024292,235.829514 576.943359,249.735733 
	C576.933533,251.427811 576.288025,253.116211 575.556274,254.926971 
	C575.127747,239.012711 575.079956,222.977814 575.107788,206.481049 
z"/>
<path fill="#CA3434" opacity="1.000000" stroke="none" 
	d="
M684.092285,11.617540 
	C670.575562,12.182948 657.031189,12.317243 643.210266,12.780434 
	C643.197449,12.119945 643.457947,10.266182 643.725403,10.265181 
	C656.974243,10.215574 670.223816,10.321507 683.472839,10.448517 
	C683.672485,10.450432 683.867554,10.929851 684.092285,11.617540 
z"/>
<path fill="#DC0503" opacity="1.000000" stroke="none" 
	d="
M535.009888,151.569366 
	C520.248962,152.011551 505.662384,152.011551 491.075775,152.011551 
	C491.074890,151.674469 491.074036,151.337372 491.073151,151.000290 
	C503.124725,151.000290 515.176331,151.001007 527.227905,151.000031 
	C533.995483,150.999481 533.996948,150.998230 533.997192,144.359955 
	C533.997620,134.555527 533.995605,124.751099 533.997559,114.229187 
	C534.000366,113.511696 534.004883,113.012863 534.011230,112.809372 
	C534.017517,112.605873 534.009216,112.198776 534.009216,112.198776 
	C534.401428,113.439156 535.125244,114.677094 535.134399,115.920280 
	C535.220459,127.655403 535.184753,139.391434 535.009888,151.569366 
z"/>
<path fill="#E10F0E" opacity="1.000000" stroke="none" 
	d="
M534.004883,113.012863 
	C534.004883,113.012863 534.000366,113.511696 533.995300,113.761200 
	C521.261841,114.006752 508.533203,114.038025 495.805420,113.947220 
	C494.454193,113.937584 493.108124,113.212669 491.866058,112.511124 
	C503.679871,112.151375 515.387268,112.100082 527.711548,112.310928 
	C528.879272,112.452744 529.430115,112.332420 529.980896,112.212105 
	C530.741150,112.153946 531.501404,112.095779 532.753906,112.303337 
	C533.454346,112.793442 533.707275,112.941376 534.004883,113.012863 
z"/>
<path fill="#C84042" opacity="1.000000" stroke="none" 
	d="
M261.363098,49.918159 
	C260.963715,49.921627 261.045654,49.435516 261.048523,49.188286 
	C261.069031,37.306606 261.086639,25.672165 261.352264,13.536232 
	C261.600311,13.034742 262.092499,12.979684 262.092529,12.979684 
	C261.982483,25.291353 261.872467,37.603024 261.363098,49.918159 
z"/>
<path fill="#D71E1C" opacity="1.000000" stroke="none" 
	d="
M239.543213,216.131744 
	C239.323807,216.789810 238.670120,217.867035 237.985428,217.887131 
	C226.866730,218.213318 215.744110,218.405518 204.316193,218.347916 
	C215.704819,217.398239 227.399658,216.728638 239.543213,216.131744 
z"/>
<path fill="#CC0D0C" opacity="1.000000" stroke="none" 
	d="
M262.161011,12.646877 
	C262.092499,12.979684 261.600311,13.034742 261.357208,13.074964 
	C259.247864,12.741372 257.385315,12.064719 255.514755,12.041673 
	C240.596466,11.857873 225.676636,11.797948 210.465302,11.438955 
	C227.120987,11.140445 244.068680,11.103027 261.481506,11.040846 
	C262.040955,11.448745 262.135223,11.881409 262.161011,12.646877 
z"/>
<path fill="#CD0D0F" opacity="1.000000" stroke="none" 
	d="
M452.256104,252.992584 
	C451.893311,240.185699 451.893311,227.622223 451.893311,215.058746 
	C452.230682,215.056259 452.568085,215.053772 452.905457,215.051300 
	C452.905457,227.056473 452.905457,239.061646 452.905457,251.302429 
	C456.427734,251.864624 459.562286,252.364929 462.835083,253.214417 
	C462.481110,253.587158 461.988922,253.610718 460.852234,253.358917 
	C459.107391,253.103119 458.007080,253.122681 456.906738,253.142242 
	C455.477478,253.173492 454.048187,253.204742 452.256104,252.992584 
z"/>
<path fill="#CD0C0C" opacity="1.000000" stroke="none" 
	d="
M161.106567,11.285168 
	C175.787216,11.050487 190.381943,11.046611 205.432648,11.059479 
	C204.164032,11.382058 202.440979,11.942389 200.714554,11.953032 
	C188.126755,12.030644 175.538284,11.997752 162.266693,12.000418 
	C161.583344,12.001070 161.152145,11.990660 161.152145,11.990660 
	C161.152145,11.990660 161.020645,11.515972 161.106567,11.285168 
z"/>
<path fill="#DC0503" opacity="1.000000" stroke="none" 
	d="
M260.472687,255.905151 
	C260.682770,253.699036 261.849335,251.572495 261.913940,249.412979 
	C262.241913,238.455627 262.283997,227.489716 262.732178,216.231674 
	C263.149261,228.391220 263.311127,240.846069 263.265076,253.300171 
	C263.261780,254.192825 261.737854,255.079849 260.472687,255.905151 
z"/>
<path fill="#CC0C0C" opacity="1.000000" stroke="none" 
	d="
M382.184204,11.198359 
	C395.144012,10.925567 407.937347,10.925567 420.730652,10.925567 
	C420.735229,11.282654 420.739807,11.639742 420.744385,11.996829 
	C411.815338,11.996829 402.885590,11.930604 393.957581,12.027213 
	C390.011749,12.069911 386.069458,12.442675 382.051941,12.387352 
	C381.991425,11.896455 382.004547,11.683803 382.184204,11.198359 
z"/>
<path fill="#DB050A" opacity="1.000000" stroke="none" 
	d="
M378.806946,251.332275 
	C391.156036,251.059723 403.531494,251.059723 415.906982,251.059723 
	C415.906342,251.355499 415.905701,251.651291 415.905060,251.947067 
	C403.975708,251.947067 392.046387,251.947067 379.663696,251.974625 
	C379.084686,251.869736 378.959015,251.737289 378.806946,251.332275 
z"/>
<path fill="#CC0D0C" opacity="1.000000" stroke="none" 
	d="
M91.227737,12.655604 
	C90.906258,12.930955 90.699516,12.980528 90.594070,12.993946 
	C90.401718,12.547129 90.314819,12.086893 90.813972,11.327992 
	C103.188339,10.997931 114.976646,10.966534 126.764961,10.935137 
	C126.870201,11.098140 126.975449,11.261144 127.022842,11.709356 
	C126.964989,11.994565 126.487495,12.011366 126.248993,12.022821 
	C114.523399,12.149603 103.036316,12.264928 91.227737,12.655604 
z"/>
<path fill="#EA1B1A" opacity="1.000000" stroke="none" 
	d="
M126.513870,10.626278 
	C114.976646,10.966534 103.188339,10.997931 90.970703,11.009939 
	C93.393616,10.734049 96.244377,10.278959 99.098366,10.257775 
	C108.152527,10.190573 117.207886,10.285295 126.513870,10.626278 
z"/>
<path fill="#DC0503" opacity="1.000000" stroke="none" 
	d="
M509.484802,49.954765 
	C510.418427,49.588116 511.816467,49.022591 513.212646,49.027332 
	C523.928772,49.063721 534.644470,49.210918 545.663452,49.605370 
	C533.960510,49.931366 521.954407,49.975700 509.484802,49.954765 
z"/>
<path fill="#CB0D0F" opacity="1.000000" stroke="none" 
	d="
M332.182495,11.567982 
	C321.497437,11.842488 310.769806,11.842488 300.042206,11.842488 
	C300.042389,11.553994 300.042603,11.265501 300.042786,10.977007 
	C310.315948,10.977007 320.589142,10.977007 331.310669,10.933040 
	C331.885986,11.023873 332.012939,11.158675 332.182495,11.567982 
z"/>
<path fill="#CA3434" opacity="1.000000" stroke="none" 
	d="
M643.169800,14.338650 
	C643.792480,15.381528 644.432251,16.758865 645.061157,18.514082 
	C644.429138,17.485678 643.807983,16.079391 643.169800,14.338650 
z"/>
<path fill="#C73638" opacity="1.000000" stroke="none" 
	d="
M736.435913,16.966560 
	C736.344177,18.049377 735.990173,19.345436 735.334839,20.830360 
	C735.413513,19.739416 735.793579,18.459612 736.435913,16.966560 
z"/>
<path fill="#EB1C1B" opacity="1.000000" stroke="none" 
	d="
M457.200623,253.295029 
	C458.007080,253.122681 459.107391,253.103119 460.499207,253.237305 
	C459.691986,253.409958 458.593262,253.428894 457.200623,253.295029 
z"/>
<path fill="#CA3434" opacity="1.000000" stroke="none" 
	d="
M685.148315,14.594790 
	C684.810303,14.361877 684.473816,13.777079 684.159790,12.832210 
	C684.504700,13.062394 684.827209,13.652648 685.148315,14.594790 
z"/>
<path fill="#EB1C1B" opacity="1.000000" stroke="none" 
	d="
M529.659180,112.126625 
	C529.430115,112.332420 528.879272,112.452744 528.177490,112.379036 
	C528.463440,112.137054 528.900452,112.089104 529.659180,112.126625 
z"/>
<path fill="#E51110" opacity="1.000000" stroke="none" 
	d="
M161.082092,12.266150 
	C161.152145,11.990660 161.583344,12.001070 161.799026,12.009535 
	C161.923828,12.525798 161.832932,13.033596 161.510391,13.859202 
	C161.189835,13.631887 161.100937,13.086764 161.082092,12.266150 
z"/>
<path fill="#EB1C1B" opacity="1.000000" stroke="none" 
	d="
M534.011230,112.809372 
	C533.707275,112.941376 533.454346,112.793442 533.128906,112.380341 
	C533.178345,112.147758 533.344971,112.103912 533.760376,112.129425 
	C534.009216,112.198776 534.017517,112.605873 534.011230,112.809372 
z"/>
<path fill="#DC0503" opacity="1.000000" stroke="none" 
	d="
M506.256927,49.952438 
	C506.279938,49.788483 506.545319,49.682358 506.897217,49.735027 
	C506.983765,49.893822 506.499268,50.010269 506.256927,49.952438 
z"/>
<path fill="#E51110" opacity="1.000000" stroke="none" 
	d="
M161.660339,15.548292 
	C161.802200,15.232277 161.943802,14.954976 162.085419,14.677673 
	C162.049088,14.816307 162.012756,14.954943 161.851532,15.360066 
	C161.726654,15.626555 161.660080,15.587008 161.660339,15.548292 
z"/>
<path fill="#CB0D0F" opacity="1.000000" stroke="none" 
	d="
M332.842773,12.744849 
	C332.516296,12.847225 332.310394,12.601802 332.156311,12.037139 
	C332.367737,12.021570 332.619507,12.247954 332.842773,12.744849 
z"/>
<path fill="#E51110" opacity="1.000000" stroke="none" 
	d="
M161.079071,260.257324 
	C161.241974,260.276093 161.344574,260.535400 161.300323,260.884918 
	C161.153458,260.975159 161.018768,260.497833 161.079071,260.257324 
z"/>
<path fill="#CC0C0C" opacity="1.000000" stroke="none" 
	d="
M29.932013,11.018410 
	C33.205002,11.018941 35.990944,11.018941 38.776890,11.018941 
	C38.777264,11.237123 38.777641,11.455305 38.778019,11.673487 
	C27.925367,11.673487 17.072716,11.673487 6.220064,11.673487 
	C6.213197,11.454950 6.206331,11.236415 6.199464,11.017879 
	C13.947965,11.017879 21.696465,11.017879 29.932013,11.018410 
z"/>
<path fill="#FFFEFE" opacity="1.000000" stroke="none" 
	d="
M89.974251,160.032227 
	C90.166290,160.124100 90.380096,160.189911 90.593895,160.255707 
	C90.382240,160.300613 90.170586,160.345535 90.001755,160.174561 
	C90.044579,159.958679 89.996010,160.006149 89.974251,160.032227 
z"/>
<path fill="#E00909" opacity="1.000000" stroke="none" 
	d="
M198.640625,49.916622 
	C198.907913,67.662453 198.908340,85.302193 198.875549,102.941879 
	C198.872162,104.757751 198.670441,106.573265 198.283005,108.695381 
	C198.124924,89.271385 198.244598,69.540947 198.640625,49.916622 
z"/>
</svg>